<svg xmlns="http://www.w3.org/2000/svg" width="1200" height="900" viewBox="0 0 1200 900"><defs><linearGradient id="bg" x1="0" y1="0" x2="1" y2="1"><stop offset="0" stop-color="#34d399"/><stop offset="1" stop-color="#0d9488"/></linearGradient><filter id="sh" x="-20%" y="-20%" width="140%" height="140%"><feDropShadow dx="0" dy="24" stdDeviation="24" flood-color="#0d0b2e" flood-opacity="0.25"/></filter><linearGradient id="acc" x1="0" y1="0" x2="1" y2="1"><stop offset="0" stop-color="#4f3cf0"/><stop offset="1" stop-color="#14d4f0"/></linearGradient></defs><rect width="1200" height="900" fill="url(#bg)"/><circle cx="1080" cy="120" r="220" fill="#ffffff" opacity="0.12"/><circle cx="120" cy="820" r="180" fill="#ffffff" opacity="0.1"/><g transform="translate(130 120)"><rect width="940" height="660" rx="22" fill="#ffffff" filter="url(#sh)"/><rect width="940" height="44" rx="22" fill="#f1f1f7"/><rect y="22" width="940" height="22" fill="#f1f1f7"/><circle cx="26" cy="22" r="7" fill="#ff6b6b"/><circle cx="48" cy="22" r="7" fill="#ffc94d"/><circle cx="70" cy="22" r="7" fill="#4cd97b"/><rect x="110" y="14" width="376" height="16" rx="8" fill="#e2e2ee"/><g transform="translate(0 44)"><rect x="40" y="30" width="420" height="260" rx="18" fill="#ecfdf5"/>
    <text x="70" y="110" font-family="Arial, Helvetica, sans-serif" font-size="40" font-weight="800" fill="#064e3b">Healthy smiles,</text>
    <text x="70" y="158" font-family="Arial, Helvetica, sans-serif" font-size="40" font-weight="800" fill="#059669">happy you.</text>
    <rect x="70" y="196" width="200" height="46" rx="23" fill="#059669"/><text x="170" y="226" text-anchor="middle" font-family="Arial, Helvetica, sans-serif" font-size="18" font-weight="700" fill="#fff">Book appointment</text>
    <rect x="490" y="30" width="410" height="260" rx="18" fill="#f8fafc"/><rect x="520" y="60" width="150" height="14" rx="7" fill="#475569"/>
    <path d="M520 250l60-40 50 20 60-70 60 30 70-60" stroke="#059669" stroke-width="8" fill="none" stroke-linecap="round" stroke-linejoin="round"/>
    <text x="760" y="110" font-family="Arial, Helvetica, sans-serif" font-size="36" font-weight="800" fill="#059669">+212%</text>
    <g transform="translate(40 320)"><rect width="270" height="220" rx="16" fill="#f0fdfa"/><circle cx="44" cy="50" r="24" fill="#99f6e4"/><rect x="84" y="38" width="150" height="14" rx="7" fill="#134e4a"/><rect x="24" y="100" width="222" height="10" rx="5" fill="#a7c7c2"/><rect x="24" y="122" width="200" height="10" rx="5" fill="#a7c7c2"/><rect x="24" y="164" width="110" height="30" rx="15" fill="#059669"/></g><g transform="translate(330 320)"><rect width="270" height="220" rx="16" fill="#f0fdfa"/><circle cx="44" cy="50" r="24" fill="#99f6e4"/><rect x="84" y="38" width="150" height="14" rx="7" fill="#134e4a"/><rect x="24" y="100" width="222" height="10" rx="5" fill="#a7c7c2"/><rect x="24" y="122" width="200" height="10" rx="5" fill="#a7c7c2"/><rect x="24" y="164" width="110" height="30" rx="15" fill="#059669"/></g><g transform="translate(620 320)"><rect width="270" height="220" rx="16" fill="#f0fdfa"/><circle cx="44" cy="50" r="24" fill="#99f6e4"/><rect x="84" y="38" width="150" height="14" rx="7" fill="#134e4a"/><rect x="24" y="100" width="222" height="10" rx="5" fill="#a7c7c2"/><rect x="24" y="122" width="200" height="10" rx="5" fill="#a7c7c2"/><rect x="24" y="164" width="110" height="30" rx="15" fill="#059669"/></g></g></g></svg>
