<svg xmlns="http://www.w3.org/2000/svg" width="1200" height="900" viewBox="0 0 1200 900"><defs><linearGradient id="bg" x1="0" y1="0" x2="1" y2="1"><stop offset="0" stop-color="#6de0ea"/><stop offset="1" stop-color="#3fb6d6"/></linearGradient><filter id="sh" x="-20%" y="-20%" width="140%" height="140%"><feDropShadow dx="0" dy="24" stdDeviation="24" flood-color="#0d0b2e" flood-opacity="0.25"/></filter><linearGradient id="acc" x1="0" y1="0" x2="1" y2="1"><stop offset="0" stop-color="#4f3cf0"/><stop offset="1" stop-color="#14d4f0"/></linearGradient></defs><rect width="1200" height="900" fill="url(#bg)"/><circle cx="1080" cy="120" r="220" fill="#ffffff" opacity="0.12"/><circle cx="120" cy="820" r="180" fill="#ffffff" opacity="0.1"/><g transform="translate(110 130)"><rect width="720" height="620" rx="22" fill="#ffffff" filter="url(#sh)"/><rect width="720" height="44" rx="22" fill="#f1f1f7"/><rect y="22" width="720" height="22" fill="#f1f1f7"/><circle cx="26" cy="22" r="7" fill="#ff6b6b"/><circle cx="48" cy="22" r="7" fill="#ffc94d"/><circle cx="70" cy="22" r="7" fill="#4cd97b"/><rect x="110" y="14" width="288" height="16" rx="8" fill="#e2e2ee"/><g transform="translate(0 44)"><rect x="36" y="36" width="648" height="240" rx="18" fill="#e8f8fa"/>
    <text x="70" y="120" font-family="Arial, Helvetica, sans-serif" font-size="44" font-weight="800" fill="#0d0b2e">Learn skills that</text>
    <text x="70" y="172" font-family="Arial, Helvetica, sans-serif" font-size="44" font-weight="800" fill="#0891b2">pay the bills.</text>
    <rect x="70" y="206" width="170" height="44" rx="22" fill="#0891b2"/><text x="155" y="235" text-anchor="middle" font-family="Arial, Helvetica, sans-serif" font-size="18" font-weight="700" fill="#fff">Start learning</text>
    <circle cx="560" cy="156" r="90" fill="#bdeef5"/><path d="M510 170l50-50 50 50v50h-100z" fill="#0891b2"/>
    <g transform="translate(36 304)"><rect width="204" height="210" rx="16" fill="#f7f9fb"/><rect x="14" y="14" width="176" height="100" rx="12" fill="#ffd6a5"/><rect x="14" y="130" width="150" height="14" rx="7" fill="#1f2937"/><rect x="14" y="156" width="110" height="10" rx="5" fill="#cbd5e1"/><rect x="14" y="178" width="60" height="18" rx="9" fill="#0891b2"/></g><g transform="translate(258 304)"><rect width="204" height="210" rx="16" fill="#f7f9fb"/><rect x="14" y="14" width="176" height="100" rx="12" fill="#caffbf"/><rect x="14" y="130" width="150" height="14" rx="7" fill="#1f2937"/><rect x="14" y="156" width="110" height="10" rx="5" fill="#cbd5e1"/><rect x="14" y="178" width="60" height="18" rx="9" fill="#0891b2"/></g><g transform="translate(480 304)"><rect width="204" height="210" rx="16" fill="#f7f9fb"/><rect x="14" y="14" width="176" height="100" rx="12" fill="#bdb2ff"/><rect x="14" y="130" width="150" height="14" rx="7" fill="#1f2937"/><rect x="14" y="156" width="110" height="10" rx="5" fill="#cbd5e1"/><rect x="14" y="178" width="60" height="18" rx="9" fill="#0891b2"/></g></g></g><g transform="translate(880 300)"><rect width="220" height="460" rx="36" fill="#0d0b2e" filter="url(#sh)"/><rect x="12" y="12" width="196" height="436" rx="26" fill="#ffffff"/><rect x="74" y="20" width="72" height="12" rx="6" fill="#0d0b2e"/><g transform="translate(12 40)"><rect x="18" y="10" width="120" height="14" rx="7" fill="#0d0b2e"/><rect x="18" y="40" width="160" height="140" rx="14" fill="#e8f8fa"/><circle cx="98" cy="110" r="36" fill="#0891b2"/><rect x="18" y="200" width="150" height="12" rx="6" fill="#1f2937"/><rect x="18" y="222" width="110" height="10" rx="5" fill="#cbd5e1"/><rect x="18" y="260" width="160" height="40" rx="20" fill="#0891b2"/><rect x="18" y="316" width="160" height="50" rx="12" fill="#f1f5f9"/></g></g></svg>
