<svg xmlns="http://www.w3.org/2000/svg" width="1200" height="900" viewBox="0 0 1200 900"><defs><linearGradient id="bg" x1="0" y1="0" x2="1" y2="1"><stop offset="0" stop-color="#ffb37a"/><stop offset="1" stop-color="#ff7a8a"/></linearGradient><filter id="sh" x="-20%" y="-20%" width="140%" height="140%"><feDropShadow dx="0" dy="24" stdDeviation="24" flood-color="#0d0b2e" flood-opacity="0.25"/></filter><linearGradient id="acc" x1="0" y1="0" x2="1" y2="1"><stop offset="0" stop-color="#4f3cf0"/><stop offset="1" stop-color="#14d4f0"/></linearGradient></defs><rect width="1200" height="900" fill="url(#bg)"/><circle cx="1080" cy="120" r="220" fill="#ffffff" opacity="0.12"/><circle cx="120" cy="820" r="180" fill="#ffffff" opacity="0.1"/><circle cx="600" cy="420" r="250" fill="#ffffff" filter="url(#sh)"/>
  <path d="M520 360h160v110c0 50-36 80-80 80s-80-30-80-80z" fill="#ff7a5c"/><path d="M680 380q50 0 50 40t-50 40" stroke="#ff7a5c" stroke-width="18" fill="none"/>
  <path d="M560 330q10-30 0-60M600 330q10-30 0-60M640 330q10-30 0-60" stroke="#ffb37a" stroke-width="10" fill="none" stroke-linecap="round"/>
  <text x="600" y="640" text-anchor="middle" font-family="Arial, Helvetica, sans-serif" font-size="64" font-weight="800" fill="#ff5a4e">brewly</text>
  <g transform="translate(120 560) rotate(-8)"><rect width="190" height="250" rx="18" fill="#fff4ec" filter="url(#sh)"/><circle cx="95" cy="100" r="50" fill="#ff7a5c"/><rect x="40" y="180" width="110" height="16" rx="8" fill="#ff7a5c"/></g>
  <g transform="translate(900 520) rotate(8)"><rect width="170" height="280" rx="30" fill="#ffffff" filter="url(#sh)"/><rect x="30" y="40" width="110" height="130" rx="10" fill="#ffd9c7"/><rect x="30" y="200" width="110" height="14" rx="7" fill="#ff5a4e"/><rect x="30" y="226" width="70" height="12" rx="6" fill="#ffb37a"/></g></svg>
