<svg xmlns="http://www.w3.org/2000/svg" width="800" height="1000" viewBox="0 0 800 1000"><defs><linearGradient id="bg" x1="0" y1="0" x2="0.2" y2="1"><stop offset="0" stop-color="#dcf7ea"/><stop offset="1" stop-color="#d6e9ff"/></linearGradient></defs><rect width="800" height="1000" fill="url(#bg)"/>
    <circle cx="400" cy="380" r="300" fill="#ffffff" opacity="0.35"/>
    <g transform="translate(-40 470) scale(1)">
  
  <rect x="172" y="196" width="56" height="74" rx="22" fill="#e2ae8a"/>
  <path d="M34 470C44 336 108 272 200 264C292 272 356 336 366 470Z" fill="#0f766e"/>
  <path d="M168 266L200 318L232 266Z" fill="#ffffff"/><path d="M178 266L200 300L222 266Z" fill="#e2ae8a"/>
  <path d="M162 268L200 344L184 364L136 298Z" fill="#0d6b63"/>
  <path d="M238 268L200 344L216 364L264 298Z" fill="#0d6b63"/>
  <ellipse cx="138" cy="160" rx="11" ry="16" fill="#e2ae8a"/>
  <ellipse cx="262" cy="160" rx="11" ry="16" fill="#e2ae8a"/>
  <ellipse cx="200" cy="152" rx="62" ry="74" fill="#f6d0b1"/>
  <ellipse cx="170" cy="182" rx="12" ry="7" fill="#f28b82" opacity="0.25"/>
  <ellipse cx="230" cy="182" rx="12" ry="7" fill="#f28b82" opacity="0.25"/>
  <circle cx="200" cy="60" r="30" fill="#2a2a35"/><path d="M136 146C130 90 166 72 202 72C240 72 272 92 266 146C256 116 236 104 204 104C172 104 148 116 136 146Z" fill="#2a2a35"/>
  
  <circle cx="178" cy="156" r="5" fill="#2a1d17"/>
  <circle cx="222" cy="156" r="5" fill="#2a1d17"/>
  <circle cx="180" cy="154" r="1.6" fill="#fff"/>
  <circle cx="224" cy="154" r="1.6" fill="#fff"/>
  
  <path d="M164 130q14-8 28 0M208 130q14-8 28 0" stroke="#2a2a35" stroke-width="4.5" fill="none" stroke-linecap="round"/>
  <path d="M198 162q-6 14 4 16" stroke="#e2ae8a" stroke-width="3" fill="none" stroke-linecap="round"/>
  <path d="M184 192q16 12 32 0" stroke="#b5584a" stroke-width="4" fill="none" stroke-linecap="round"/></g>
    <g transform="translate(440 470) scale(1)">
  <g fill="#241612"><circle cx="140" cy="130" r="40"/><circle cx="260" cy="130" r="40"/><circle cx="150" cy="190" r="36"/><circle cx="250" cy="190" r="36"/><circle cx="200" cy="92" r="50"/></g>
  <rect x="172" y="196" width="56" height="74" rx="22" fill="#8e5b39"/>
  <path d="M34 470C44 336 108 272 200 264C292 272 356 336 366 470Z" fill="#b8465f"/>
  <path d="M168 266L200 318L232 266Z" fill="#fce7ef"/><path d="M178 266L200 300L222 266Z" fill="#8e5b39"/>
  <path d="M162 268L200 344L184 364L136 298Z" fill="#a13a52"/>
  <path d="M238 268L200 344L216 364L264 298Z" fill="#a13a52"/>
  <ellipse cx="138" cy="160" rx="11" ry="16" fill="#8e5b39"/>
  <ellipse cx="262" cy="160" rx="11" ry="16" fill="#8e5b39"/>
  <ellipse cx="200" cy="152" rx="62" ry="74" fill="#a9714b"/>
  <ellipse cx="170" cy="182" rx="12" ry="7" fill="#f28b82" opacity="0.25"/>
  <ellipse cx="230" cy="182" rx="12" ry="7" fill="#f28b82" opacity="0.25"/>
  <path d="M138 140C136 96 166 80 202 80C240 80 266 98 264 140C250 118 232 110 202 110C174 110 152 118 138 140Z" fill="#241612"/>
  
  <circle cx="178" cy="156" r="5" fill="#2a1d17"/>
  <circle cx="222" cy="156" r="5" fill="#2a1d17"/>
  <circle cx="180" cy="154" r="1.6" fill="#fff"/>
  <circle cx="224" cy="154" r="1.6" fill="#fff"/>
  
  <path d="M164 130q14-8 28 0M208 130q14-8 28 0" stroke="#241612" stroke-width="4.5" fill="none" stroke-linecap="round"/>
  <path d="M198 162q-6 14 4 16" stroke="#8e5b39" stroke-width="3" fill="none" stroke-linecap="round"/>
  <path d="M184 192q16 12 32 0" stroke="#b5584a" stroke-width="4" fill="none" stroke-linecap="round"/></g>
    <g transform="translate(200 380) scale(1.12)">
  
  <rect x="172" y="196" width="56" height="74" rx="22" fill="#cf966b"/>
  <path d="M34 470C44 336 108 272 200 264C292 272 356 336 366 470Z" fill="#243b55"/>
  <path d="M168 266L200 318L232 266Z" fill="#ffffff"/><path d="M178 266L200 300L222 266Z" fill="#cf966b"/>
  <path d="M162 268L200 344L184 364L136 298Z" fill="#2f4a6b"/>
  <path d="M238 268L200 344L216 364L264 298Z" fill="#2f4a6b"/>
  <ellipse cx="138" cy="160" rx="11" ry="16" fill="#cf966b"/>
  <ellipse cx="262" cy="160" rx="11" ry="16" fill="#cf966b"/>
  <ellipse cx="200" cy="152" rx="62" ry="74" fill="#e8b48a"/>
  <ellipse cx="170" cy="182" rx="12" ry="7" fill="#f28b82" opacity="0.25"/>
  <ellipse cx="230" cy="182" rx="12" ry="7" fill="#f28b82" opacity="0.25"/>
  <path d="M136 146C128 84 168 60 204 60C246 60 274 88 266 146C260 118 240 104 206 104C176 104 150 114 136 146Z" fill="#15151b"/>
  
  <circle cx="178" cy="156" r="5" fill="#2a1d17"/>
  <circle cx="222" cy="156" r="5" fill="#2a1d17"/>
  <circle cx="180" cy="154" r="1.6" fill="#fff"/>
  <circle cx="224" cy="154" r="1.6" fill="#fff"/>
  
  <path d="M164 130q14-8 28 0M208 130q14-8 28 0" stroke="#15151b" stroke-width="4.5" fill="none" stroke-linecap="round"/>
  <path d="M198 162q-6 14 4 16" stroke="#cf966b" stroke-width="3" fill="none" stroke-linecap="round"/>
  <path d="M184 192q16 12 32 0" stroke="#b5584a" stroke-width="4" fill="none" stroke-linecap="round"/></g>
    <g transform="translate(560 120)"><rect width="170" height="70" rx="35" fill="#ffffff"/><text x="85" y="45" text-anchor="middle" font-family="Arial, Helvetica, sans-serif" font-size="26" font-weight="700" fill="#0d0b2e">Team up!</text></g></svg>
