<svg xmlns="http://www.w3.org/2000/svg" width="800" height="1000" viewBox="0 0 800 1000"><defs><linearGradient id="bg" x1="0" y1="0" x2="0.2" y2="1"><stop offset="0" stop-color="#e7e3ff"/><stop offset="1" stop-color="#d3f1f8"/></linearGradient><linearGradient id="screen" x1="0" y1="0" x2="1" y2="1"><stop offset="0" stop-color="#4f3cf0"/><stop offset="1" stop-color="#14d4f0"/></linearGradient></defs><rect width="800" height="1000" fill="url(#bg)"/>
    <rect x="80" y="120" width="300" height="200" rx="18" fill="#ffffff" opacity="0.8"/>
    <rect x="110" y="150" width="140" height="16" rx="8" fill="#4f3cf0" opacity="0.5"/>
    <path d="M110 280l50-40 40 20 60-60 60 30" stroke="#14d4f0" stroke-width="10" fill="none" stroke-linecap="round" stroke-linejoin="round"/>
    <g transform="translate(-60 330) scale(1.05)">
  <path d="M118 150C108 250 120 330 132 360L268 360C280 330 292 250 282 150Z" fill="#6b3f22"/>
  <rect x="172" y="196" width="56" height="74" rx="22" fill="#e0a47f"/>
  <path d="M34 470C44 336 108 272 200 264C292 272 356 336 366 470Z" fill="#e8e6f7"/>
  <path d="M168 266L200 318L232 266Z" fill="#ffffff"/><path d="M178 266L200 300L222 266Z" fill="#e0a47f"/>
  <path d="M162 268L200 344L184 364L136 298Z" fill="#d6d2f0"/>
  <path d="M238 268L200 344L216 364L264 298Z" fill="#d6d2f0"/>
  <ellipse cx="138" cy="160" rx="11" ry="16" fill="#e0a47f"/>
  <ellipse cx="262" cy="160" rx="11" ry="16" fill="#e0a47f"/>
  <ellipse cx="200" cy="152" rx="62" ry="74" fill="#f3c5a4"/>
  <ellipse cx="170" cy="182" rx="12" ry="7" fill="#f28b82" opacity="0.25"/>
  <ellipse cx="230" cy="182" rx="12" ry="7" fill="#f28b82" opacity="0.25"/>
  <path d="M132 160C124 92 164 66 202 66C244 66 280 94 270 160C262 124 244 106 204 106C168 106 146 122 132 160Z" fill="#6b3f22"/>
  
  <circle cx="178" cy="156" r="5" fill="#2a1d17"/>
  <circle cx="222" cy="156" r="5" fill="#2a1d17"/>
  <circle cx="180" cy="154" r="1.6" fill="#fff"/>
  <circle cx="224" cy="154" r="1.6" fill="#fff"/>
  
  <path d="M164 130q14-8 28 0M208 130q14-8 28 0" stroke="#6b3f22" stroke-width="4.5" fill="none" stroke-linecap="round"/>
  <path d="M198 162q-6 14 4 16" stroke="#e0a47f" stroke-width="3" fill="none" stroke-linecap="round"/>
  <path d="M184 192q16 12 32 0" stroke="#b5584a" stroke-width="4" fill="none" stroke-linecap="round"/></g>
    <g transform="translate(380 330) scale(1.05)">
  
  <rect x="172" y="196" width="56" height="74" rx="22" fill="#d99a72"/>
  <path d="M34 470C44 336 108 272 200 264C292 272 356 336 366 470Z" fill="#1f2447"/>
  <path d="M168 266L200 332L232 266Z" fill="#ffffff"/><path d="M194 330L206 330L213 420L200 436L187 420Z" fill="#4f3cf0"/>
  <path d="M162 268L200 344L184 364L136 298Z" fill="#2d3468"/>
  <path d="M238 268L200 344L216 364L264 298Z" fill="#2d3468"/>
  <ellipse cx="138" cy="160" rx="11" ry="16" fill="#d99a72"/>
  <ellipse cx="262" cy="160" rx="11" ry="16" fill="#d99a72"/>
  <ellipse cx="200" cy="152" rx="62" ry="74" fill="#efb893"/>
  <ellipse cx="170" cy="182" rx="12" ry="7" fill="#f28b82" opacity="0.25"/>
  <ellipse cx="230" cy="182" rx="12" ry="7" fill="#f28b82" opacity="0.25"/>
  <path d="M136 146C128 84 168 60 204 60C246 60 274 88 266 146C260 118 240 104 206 104C176 104 150 114 136 146Z" fill="#3a2a22"/>
  <path d="M146 168C152 216 178 232 200 232C222 232 248 216 254 168C244 196 226 208 200 208C174 208 156 196 146 168Z" fill="#3a2a22" opacity="0.92"/>
  <circle cx="178" cy="156" r="5" fill="#2a1d17"/>
  <circle cx="222" cy="156" r="5" fill="#2a1d17"/>
  <circle cx="180" cy="154" r="1.6" fill="#fff"/>
  <circle cx="224" cy="154" r="1.6" fill="#fff"/>
  <circle cx="178" cy="156" r="17" fill="none" stroke="#1c1c28" stroke-width="3"/><circle cx="222" cy="156" r="17" fill="none" stroke="#1c1c28" stroke-width="3"/><path d="M195 156h10M161 152l-22-4M239 152l22-4" stroke="#1c1c28" stroke-width="3"/>
  <path d="M164 130q14-8 28 0M208 130q14-8 28 0" stroke="#3a2a22" stroke-width="4.5" fill="none" stroke-linecap="round"/>
  <path d="M198 162q-6 14 4 16" stroke="#d99a72" stroke-width="3" fill="none" stroke-linecap="round"/>
  <path d="M184 192q16 12 32 0" stroke="#fff" stroke-width="4" fill="none" stroke-linecap="round"/></g>
    <rect x="0" y="780" width="800" height="220" fill="#8b6b4f"/>
    <rect x="0" y="780" width="800" height="24" fill="#a3825f"/>
    <path d="M300 780l20-150h200l20 150z" fill="#2b2d3a"/>
    <rect x="330" y="650" width="180" height="110" rx="6" fill="url(#screen)"/>
    <rect x="250" y="776" width="340" height="14" rx="7" fill="#3a3d4d"/>
    <rect x="620" y="720" width="60" height="64" rx="10" fill="#ffffff"/><path d="M680 736q24 0 24 18t-24 18" stroke="#ffffff" stroke-width="8" fill="none"/></svg>
